<?xml version="1.0" standalone="no"?>
<!DOCTYPE svg PUBLIC "-//W3C//DTD SVG 20010904//EN"
 "http://www.w3.org/TR/2001/REC-SVG-20010904/DTD/svg10.dtd">
<svg version="1.0" xmlns="http://www.w3.org/2000/svg"
 width="612.000000pt" height="612.000000pt" viewBox="0 0 612.000000 612.000000"
 preserveAspectRatio="xMidYMid meet">
<metadata>
Created by potrace 1.14, written by Peter Selinger 2001-2017
</metadata>
<g transform="translate(0.000000,612.000000) scale(0.100000,-0.100000)"
fill="#000000" stroke="none">
<path d="M2554 5093 c2 -3 -54 -64 -125 -136 -233 -237 -489 -500 -489 -503 0
-7 -73 -74 -81 -74 -5 0 -9 -4 -9 -8 0 -5 -35 -45 -78 -89 -52 -53 -82 -93
-91 -121 -8 -23 -20 -42 -28 -42 -7 0 -13 -5 -13 -11 0 -5 -5 -7 -10 -4 -6 4
-9 3 -8 -2 2 -5 -76 -89 -172 -186 -97 -97 -175 -177 -175 -177 1 0 -48 -51
-109 -113 -61 -62 -114 -112 -118 -110 -5 2 -8 -1 -8 -7 0 -6 -11 -22 -25 -36
-14 -14 -25 -35 -26 -47 0 -12 -2 -35 -3 -50 -2 -37 7 -50 38 -49 15 0 29 -4
32 -9 3 -5 13 -5 24 1 13 7 21 7 25 0 4 -7 13 -7 26 0 10 6 19 7 19 3 0 -4 15
-9 33 -9 35 -1 98 -10 136 -18 14 -3 29 -2 35 2 16 12 41 8 38 -6 -1 -7 1 -12
6 -12 4 0 7 -85 7 -190 0 -104 4 -190 8 -190 5 0 5 -6 0 -12 -9 -16 -6 -103 5
-126 5 -9 7 -102 5 -207 -2 -104 -5 -317 -6 -472 -1 -180 -6 -283 -12 -284
-36 -5 -62 -3 -72 5 -8 5 -13 4 -13 -3 0 -7 -5 -9 -11 -6 -18 12 -59 13 -59 1
0 -7 -3 -8 -8 -1 -8 12 -161 13 -180 1 -6 -4 -12 -4 -12 1 0 4 -16 8 -35 8
-19 0 -35 -4 -35 -8 0 -5 -4 -6 -9 -3 -8 6 -94 16 -153 20 -15 1 -29 4 -33 8
-4 3 -20 2 -36 -2 -16 -5 -27 -5 -25 -1 5 8 -79 14 -194 14 -85 0 -121 -14
-170 -65 -77 -81 -104 -195 -69 -292 19 -51 63 -106 86 -106 7 0 13 -4 13 -9
0 -13 87 -30 190 -36 46 -3 86 -8 88 -10 3 -2 13 0 23 6 11 5 19 6 19 1 0 -5
24 -10 52 -11 175 -8 393 -25 393 -30 0 -1 29 -4 65 -6 100 -7 182 -14 315
-31 36 -4 63 -7 170 -18 91 -10 176 -18 225 -21 30 -2 57 -4 60 -5 3 -2 10 -1
15 0 6 1 25 2 43 2 17 0 32 4 32 10 0 5 4 7 10 3 5 -3 26 10 47 30 20 19 34
35 29 35 -4 0 -1 6 6 14 7 7 19 23 27 34 10 14 22 19 47 16 19 -2 38 -6 43 -9
5 -3 12 -1 16 5 4 6 10 8 15 5 8 -5 54 -10 180 -20 25 -2 77 -6 115 -10 123
-11 299 -24 390 -30 39 -2 70 -5 70 -6 0 -1 27 -3 60 -5 33 -2 85 -6 115 -9
30 -3 89 -8 130 -10 148 -10 179 -13 189 -19 5 -4 13 -2 16 4 4 7 11 7 18 2 7
-5 22 -8 35 -7 12 1 22 -1 22 -4 0 -3 24 -7 53 -7 28 -1 97 -5 152 -9 113 -8
100 -8 181 -1 34 3 73 10 87 15 14 5 28 7 31 4 3 -4 6 -2 6 3 0 5 17 9 38 9
20 1 53 4 72 8 34 8 68 14 120 22 22 4 58 11 85 19 6 1 33 7 60 11 58 10 64
12 68 15 1 1 13 3 27 5 32 4 78 13 110 22 14 3 29 5 34 4 5 -1 16 1 25 5 9 4
30 8 46 10 17 2 41 7 55 10 14 4 32 8 40 10 8 1 26 5 40 8 14 3 45 8 70 12 25
3 56 11 70 18 l25 11 1 301 c0 165 4 306 8 312 4 7 3 12 -1 12 -10 0 -5 127 6
150 4 8 6 242 4 520 -1 278 0 512 3 522 3 9 12 19 22 23 16 6 185 16 324 19
32 0 58 3 58 6 0 3 25 6 56 7 31 1 58 4 61 6 8 9 10 73 2 103 -5 17 -20 36
-34 44 -14 7 -25 17 -25 22 0 4 -9 8 -20 8 -11 0 -20 5 -20 10 0 6 -5 10 -10
10 -6 0 -16 5 -23 10 -7 6 -84 59 -172 117 -170 113 -212 143 -200 143 5 0 -5
11 -21 25 -16 14 -34 25 -39 25 -6 0 -18 9 -28 20 -9 11 -24 20 -32 20 -8 0
-15 5 -15 10 0 6 -7 10 -15 10 -8 0 -15 5 -15 10 0 6 -5 10 -10 10 -6 0 -20 9
-32 20 -12 11 -28 20 -35 20 -7 0 -13 5 -13 10 0 6 -7 10 -15 10 -8 0 -15 3
-15 8 0 4 -17 16 -37 27 -21 11 -40 23 -43 26 -3 3 -25 17 -49 30 -45 25 -55
31 -106 64 -63 40 -61 33 -62 250 0 110 -2 231 -4 270 -2 65 -14 99 -31 88 -5
-2 -8 1 -8 6 0 6 -5 11 -11 11 -16 0 -133 52 -140 63 -3 5 -8 8 -10 7 -7 -2
-43 11 -72 27 -32 17 -108 20 -177 8 -25 -4 -63 -9 -85 -11 -22 -1 -40 -3 -40
-4 0 -2 -34 -8 -90 -15 -79 -10 -84 -11 -92 -18 -7 -7 -12 -52 -15 -129 0 -21
-3 -38 -4 -38 -4 0 -82 29 -109 40 -11 5 -51 21 -90 35 -112 42 -168 64 -200
76 -16 7 -32 13 -35 14 -3 1 -16 6 -30 12 -14 6 -45 17 -70 26 -49 17 -168 62
-215 82 -42 18 -79 29 -87 27 -5 -1 -8 2 -8 8 0 6 -3 9 -7 8 -7 -2 -136 45
-198 72 -89 39 -157 60 -193 58 -23 -1 -40 -3 -38 -5z"/>
</g>
</svg>
