<svg width="20" height="21" viewBox="0 0 20 21" fill="none" xmlns="http://www.w3.org/2000/svg">
<g clip-path="url(#clip0_90_67)">
<path d="M12.5417 4.66666C13.3556 4.82547 14.1036 5.22354 14.69 5.80994C15.2764 6.39634 15.6745 7.14438 15.8333 7.95833M12.5417 1.33333C14.2327 1.52119 15.8096 2.27847 17.0135 3.48083C18.2174 4.6832 18.9767 6.25917 19.1667 7.94999M18.3333 14.6V17.1C18.3343 17.3321 18.2867 17.5618 18.1937 17.7745C18.1008 17.9871 17.9644 18.178 17.7934 18.3349C17.6224 18.4918 17.4205 18.6112 17.2006 18.6856C16.9808 18.7599 16.7478 18.7876 16.5167 18.7667C13.9523 18.488 11.4892 17.6118 9.32498 16.2083C7.31151 14.9289 5.60443 13.2218 4.32499 11.2083C2.91663 9.03433 2.04019 6.55916 1.76665 3.98333C1.74583 3.75288 1.77321 3.52063 1.84707 3.30135C1.92092 3.08207 2.03963 2.88057 2.19562 2.70968C2.35162 2.53879 2.54149 2.40225 2.75314 2.30876C2.9648 2.21527 3.1936 2.16688 3.42499 2.16666H5.92499C6.32941 2.16268 6.72148 2.30589 7.02812 2.56961C7.33476 2.83332 7.53505 3.19953 7.59165 3.59999C7.69717 4.40005 7.89286 5.1856 8.17499 5.94166C8.2871 6.23993 8.31137 6.56409 8.24491 6.87573C8.17844 7.18737 8.02404 7.47342 7.79998 7.7L6.74165 8.75833C7.92795 10.8446 9.65536 12.572 11.7417 13.7583L12.8 12.7C13.0266 12.4759 13.3126 12.3215 13.6243 12.2551C13.9359 12.1886 14.26 12.2129 14.5583 12.325C15.3144 12.6071 16.0999 12.8028 16.9 12.9083C17.3048 12.9654 17.6745 13.1693 17.9388 13.4812C18.203 13.7931 18.3435 14.1913 18.3333 14.6Z" stroke="#EB5757" stroke-width="2" stroke-linecap="round" stroke-linejoin="round"/>
</g>
<defs>
<clipPath id="clip0_90_67">
<rect width="20" height="20" fill="white" transform="translate(0 0.5)"/>
</clipPath>
</defs>
</svg>
