<svg width="24" height="25" viewBox="0 0 24 25" fill="none" xmlns="http://www.w3.org/2000/svg">
<g clip-path="url(#clip0_59_71)">
<path d="M15.05 5.04492C16.0267 5.23549 16.9244 5.71318 17.6281 6.41686C18.3317 7.12054 18.8094 8.01819 19 8.99492M15.05 1.04492C17.0793 1.27036 18.9716 2.1791 20.4162 3.62193C21.8609 5.06476 22.772 6.95593 23 8.98492M22 16.9649V19.9649C22.0011 20.2434 21.9441 20.5191 21.8325 20.7743C21.7209 21.0294 21.5573 21.2585 21.3521 21.4468C21.1468 21.6351 20.9046 21.7784 20.6407 21.8676C20.3769 21.9569 20.0974 21.99 19.82 21.9649C16.7428 21.6306 13.787 20.5791 11.19 18.8949C8.77382 17.3596 6.72533 15.3111 5.18999 12.8949C3.49997 10.2861 2.44824 7.31592 2.11999 4.22492C2.095 3.94839 2.12787 3.66968 2.21649 3.40655C2.30512 3.14341 2.44756 2.90161 2.63476 2.69654C2.82196 2.49147 3.0498 2.32763 3.30379 2.21544C3.55777 2.10326 3.83233 2.04518 4.10999 2.04492H7.10999C7.5953 2.04015 8.06579 2.212 8.43376 2.52845C8.80173 2.84491 9.04207 3.28437 9.10999 3.76492C9.23662 4.72499 9.47144 5.66765 9.80999 6.57492C9.94454 6.93285 9.97366 7.32184 9.8939 7.6958C9.81415 8.06977 9.62886 8.41303 9.35999 8.68492L8.08999 9.95492C9.51355 12.4585 11.5864 14.5314 14.09 15.9549L15.36 14.6849C15.6319 14.4161 15.9751 14.2308 16.3491 14.151C16.7231 14.0713 17.1121 14.1004 17.47 14.2349C18.3773 14.5735 19.3199 14.8083 20.28 14.9349C20.7658 15.0035 21.2094 15.2481 21.5265 15.6224C21.8437 15.9967 22.0122 16.4745 22 16.9649Z" stroke="white" stroke-width="2" stroke-linecap="round" stroke-linejoin="round"/>
</g>
<defs>
<clipPath id="clip0_59_71">
<rect width="24" height="24" fill="white" transform="translate(0 0.0449219)"/>
</clipPath>
</defs>
</svg>
